<svg xmlns="http://www.w3.org/2000/svg" viewBox="0 0 80.06 96.53"><rect x="25.42" y="5.41" width="29.21" height="7.25" rx="1.29"/><path d="M51.88,3.49a2.15,2.15,0,1,0-4.29,0V5.88h4.29Z" transform="translate(-9.71 -1.29)"/><path d="M83.59,15.87H15.88A6.17,6.17,0,0,0,9.71,22V63.53a6.18,6.18,0,0,0,6.17,6.18h.51V66a1.53,1.53,0,0,1,1.53-1.53H81.55A1.53,1.53,0,0,1,83.08,66v3.76h.51a6.18,6.18,0,0,0,6.17-6.18V22A6.17,6.17,0,0,0,83.59,15.87Z" transform="translate(-9.71 -1.29)"/><path d="M73.31,74H79a1.53,1.53,0,0,0,1.53-1.52V68.43A1.53,1.53,0,0,0,79,66.91H20.51A1.53,1.53,0,0,0,19,68.43v4.08A1.53,1.53,0,0,0,20.51,74h5.65L17.27,93.69a2.93,2.93,0,0,0,5.34,2.41l9.74-21.56a2.54,2.54,0,0,0,.17-.51H67a2.54,2.54,0,0,0,.17.51L76.86,96.1a2.93,2.93,0,0,0,5.34-2.41Z" transform="translate(-9.71 -1.29)"/></svg>