<svg xmlns="http://www.w3.org/2000/svg" viewBox="0 0 94.74 86.75"><path d="M44.62,5.61C31.73,6.58,18.82,16,11.69,25.3-4.65,46.62,7.59,69.69,8.12,70.65A43.23,43.23,0,0,0,42.89,92c12.61,1,23.26-3,28.22-5.08,0,0,19.77-10,25.25-27.61h0c2.72-5.71,1.86-11.79-1.7-14.85a9.86,9.86,0,0,0-6.11-2.19h0c-4.39,0-7.11,3.39-10,5.77-1.36,1.12-7.64,5.77-13,4.88a7.34,7.34,0,0,1-5.58-4.25c-.17-.42-.81-2.12.25-5.8a28.14,28.14,0,0,1,4.21-8.12c4.06-6.39,4.34-14.78,1.14-20.5a17,17,0,0,0-7.29-6.75C52.75,4.87,47.07,5.42,44.62,5.61Zm2.63,70.87A6.52,6.52,0,1,1,40,70.77,6.53,6.53,0,0,1,47.25,76.48ZM28,64.49a6.51,6.51,0,1,1-7.23-5.71A6.51,6.51,0,0,1,28,64.49ZM25.25,42.18A6.51,6.51,0,1,1,18,36.47,6.52,6.52,0,0,1,25.25,42.18Zm11.48-20a6.51,6.51,0,1,1-7.23-5.71A6.51,6.51,0,0,1,36.73,22.13Z" transform="translate(-3.22 -5.43)"/></svg>