<svg xmlns="http://www.w3.org/2000/svg" viewBox="0 0 87.34 95.84"><path d="M.95,89.1H86.39a.95.95,0,0,1,.95.95v.65a5.15,5.15,0,0,1-5.15,5.15h-77A5.15,5.15,0,0,1,0,90.7V90a.95.95,0,0,1,.95-.95Z"/><rect x="40.02" y="77.59" width="7.31" height="10.78" rx="0.6"/><rect x="10.05" y="70.09" width="67.24" height="6.76" rx="1.68"/><path d="M74.12,33.7a16.21,16.21,0,0,0-6.9-7l-16.93-.05H50l-16.93.05a16.21,16.21,0,0,0-6.9,7A15.84,15.84,0,0,0,25,40.82c.34,4.94,4.61,22.27,14.42,30.46H60.89C70.69,63.09,75,45.76,75.3,40.82A15.84,15.84,0,0,0,74.12,33.7Z" transform="translate(-6.47 -2.22)"/><path d="M63.35,12.05H36.94a11.81,11.81,0,0,1,.67,5.68,12,12,0,0,1-3.58,7H66.25a12,12,0,0,1-3.58-7A11.79,11.79,0,0,1,63.35,12.05Z" transform="translate(-6.47 -2.22)"/><path d="M66.38,2.52c-.14-.33-.39-.31-.43-.3l-15.81,0-15.81,0s-.29,0-.43.3a2.42,2.42,0,0,0-.06.9,2.61,2.61,0,0,0,.11.92,1.45,1.45,0,0,0,.23.34c.16.19.31.42.47.6a10.58,10.58,0,0,1,1.11,1.88,16,16,0,0,1,1.08,3.13L50,10.38h.35l13.12-.09a16,16,0,0,1,1.08-3.13,10.58,10.58,0,0,1,1.11-1.88c.17-.18.32-.41.48-.6a1.38,1.38,0,0,0,.22-.34,2.85,2.85,0,0,0,.12-.92A2.59,2.59,0,0,0,66.38,2.52Z" transform="translate(-6.47 -2.22)"/></svg>