<svg xmlns="http://www.w3.org/2000/svg" viewBox="0 0 96.75 82.51"><defs><style>.a{fill:#29abe2;}</style></defs><path class="a" d="M97.27,11.17l-5.78,2.34L2.14,48.64a.51.51,0,0,0,0,1l28.26,9.14.37,2h0l5.93,31.87.13.7c0,.31.59.4.78.13l.51-.72L50.87,75.27a.42.42,0,0,0,0-.1L42,68l-.68-.47a.81.81,0,0,0-1.25.59h0L37.62,87.59,32.46,60h0l-.12-.67a.69.69,0,0,0,.15-.07L92.64,14.85l.09,0c.2,0,.24.18.14.34l0,0L41.26,62.81a.89.89,0,0,0,.05,1.35L69.12,86.63a.89.89,0,0,0,1.4-.38L98.46,12.3A.89.89,0,0,0,97.27,11.17Z" transform="translate(-1.77 -11.09)"/></svg>