<svg xmlns="http://www.w3.org/2000/svg" viewBox="0 0 61.47 97.41"><path d="M79.94,51.24a3.18,3.18,0,0,0-2-1.12,22.77,22.77,0,0,0-4.15-.7,30,30,0,0,0-7.48.5c-3.82.69-5.63,1.61-6.83.41a5,5,0,0,1-.73-1.42,6.21,6.21,0,0,1-.24-3.52,4.84,4.84,0,0,0,1.5-.94c1.7-1.56,2.76-5.77,4.83-14.12.49-2,1-4.08.09-6.09a9,9,0,0,1-.74-1.85c-.43-1.74-.24-3.92.65-4.24.25-.1.33,0,.64,0,1-.15,1.73-1.85,1.94-3.14.18-1.13-.17-2.34-.88-4.73-.6-2-.91-3-1.34-3.39-1-.83-2-.62-3.67-2a4.26,4.26,0,0,1-.39-.35l-.17-.19a2.47,2.47,0,0,0-1.53-.47c-2.52,0-3.19.43-4.35,0-.75-.25-.86-.54-2.2-1a12.16,12.16,0,0,0-1.37-.4A78,78,0,0,0,36.05,1.41c-2.25.12-4.59.41-6.09,2a12.85,12.85,0,0,0-1.79,2.65c-.65,1.33-.54,1.82-1.24,2.77-.48.66-.58.7-2.08,1.9-1.28,1-2,1.46-2.31,2.49a8,8,0,0,0,.38,3.65c.09.27.14.38.28.83a8.09,8.09,0,0,1,.54,2.45,4,4,0,0,1-.64,1.93c-.82,1.66-.13,3.66.73,6.19C25.47,33,27.06,33.09,27,35.68c0,1.52-.62,2.26-.27,4.11a4.15,4.15,0,0,0,1.63,3,3.27,3.27,0,0,0,2.11.41,9.35,9.35,0,0,1,5.14,3.37,6.76,6.76,0,0,1,1.2,3.41c-.89,3.69-2.31,5.3-3.63,6-2.21,1.2-6.65,1.31-10.58,2.7a5.32,5.32,0,0,0-2.8,2.09,3.94,3.94,0,0,0-.64,1.72,5,5,0,0,0,1.38,3.43,36,36,0,0,0,7.11,6.78,41.88,41.88,0,0,0,5.84,3.26L66.84,76a30.85,30.85,0,0,0,8.3-7.88A37,37,0,0,0,80.22,56C80.59,54.39,80.91,52.49,79.94,51.24Z" transform="translate(-19.11 -1.35)"/><rect x="14.05" y="75.79" width="34.07" height="15.32" rx="0.65"/><path d="M5.26,92H56.91a3.76,3.76,0,0,1,3.76,3.76V96a1.41,1.41,0,0,1-1.41,1.41H2.91A1.41,1.41,0,0,1,1.5,96v-.24A3.76,3.76,0,0,1,5.26,92Z"/></svg>