<?xml version="1.0" standalone="no"?>
<!DOCTYPE svg PUBLIC "-//W3C//DTD SVG 20010904//EN"
 "http://www.w3.org/TR/2001/REC-SVG-20010904/DTD/svg10.dtd">
<svg version="1.0" xmlns="http://www.w3.org/2000/svg"
 width="1200.000000pt" height="400.000000pt" viewBox="0 0 1200.000000 400.000000"
 preserveAspectRatio="xMidYMid meet">
<g transform="translate(0.000000,400.000000) scale(0.100000,-0.100000)"
fill="#000000" stroke="none">
<path d="M2065 3070 c-102 -50 -275 -200 -275 -238 0 -29 25 -18 83 36 101 94
273 202 297 187 11 -7 14 4 -40 -220 -47 -197 -48 -199 -86 -201 -16 -2 -58
-7 -94 -13 -170 -28 -241 -34 -251 -24 -8 8 -4 35 15 95 14 45 31 101 37 123
6 22 15 50 20 63 14 35 11 82 -4 82 -9 0 -35 -64 -72 -175 -32 -96 -64 -183
-71 -194 -14 -19 -67 -51 -86 -51 -16 0 -86 -51 -92 -67 -11 -27 18 -56 65
-67 61 -15 63 -42 9 -152 -43 -88 -47 -116 -18 -122 22 -4 64 79 114 224 45
131 56 150 97 163 57 18 349 63 357 54 5 -4 4 -35 -2 -68 -12 -74 -6 -231 10
-247 28 -28 40 9 44 145 5 161 16 190 81 208 23 6 52 14 65 18 42 12 23 26
-42 31 -35 3 -68 8 -72 12 -4 4 1 31 10 60 104 314 72 422 -99 338z m-465
-594 c0 -34 -23 -49 -64 -42 -48 9 -54 33 -13 51 51 22 77 19 77 -9z"/>
<path d="M5224 2968 c-38 -45 -136 -253 -173 -365 -16 -51 -34 -133 -40 -184
-6 -51 -14 -95 -18 -99 -10 -8 -346 -61 -385 -60 -48 0 -32 25 58 90 146 106
274 238 274 283 0 53 -109 68 -147 20 -13 -15 -23 -31 -23 -35 0 -15 32 -8 61
13 47 34 64 9 28 -42 -27 -38 -368 -311 -379 -304 -16 10 -78 128 -89 171 -24
90 38 197 132 229 52 18 57 18 116 1 52 -14 65 -15 89 -4 35 17 35 45 -1 71
-25 19 -33 20 -102 10 -93 -13 -169 -49 -240 -115 -65 -59 -85 -93 -85 -142 0
-32 -4 -38 -47 -60 -70 -34 -168 -56 -257 -56 -68 0 -80 3 -101 25 -29 28 -30
36 -10 75 19 37 33 41 76 18 26 -14 60 -19 121 -20 104 -1 138 15 138 69 0
139 -296 95 -389 -57 -93 -154 165 -237 385 -124 98 50 110 46 172 -60 108
-183 127 -282 73 -369 -17 -25 -89 -110 -160 -187 -72 -78 -131 -148 -131
-156 0 -38 48 -8 157 99 206 200 253 299 203 429 -30 80 -32 78 73 78 137 1
314 30 447 73 151 49 166 51 206 32 64 -30 220 -5 237 39 8 20 -19 28 -62 17
-58 -16 -143 -18 -148 -4 -3 7 19 37 47 68 33 34 50 60 47 69 -8 20 -33 7
-115 -62 -179 -149 -237 -93 -153 150 29 84 144 343 163 365 11 14 4 43 -11
43 -5 0 -22 -15 -37 -32z m-1061 -384 c17 -5 23 -29 9 -38 -4 -2 -60 -8 -125
-11 -126 -8 -145 -1 -79 31 62 30 129 36 195 18z"/>
<path d="M3019 2874 c-157 -64 -208 -78 -329 -88 -125 -10 -239 -66 -332 -162
-90 -92 -111 -177 -58 -237 39 -45 38 -61 -5 -87 -102 -63 -58 -96 147 -110
139 -10 148 -12 148 -38 0 -21 -47 -51 -227 -141 -305 -154 -400 -246 -310
-301 63 -39 209 -20 332 42 130 66 217 146 270 247 42 80 61 94 194 152 65 28
87 42 89 58 5 30 -16 27 -137 -14 -111 -38 -130 -38 -193 2 -47 29 -145 53
-220 53 -96 0 -91 33 7 50 119 21 161 33 232 66 89 42 183 119 230 189 35 54
39 71 31 160 -3 33 -4 33 207 133 75 35 100 52 100 66 0 11 -4 20 -10 21 -5 1
-80 -26 -166 -61z m-343 -146 c4 -7 -19 -36 -59 -73 -63 -60 -84 -94 -62 -101
6 -2 33 17 60 42 131 121 215 143 215 55 0 -157 -380 -368 -475 -265 -54 59
-17 164 84 238 42 31 203 114 223 116 4 0 10 -5 14 -12z m-61 -689 c47 -76
-289 -293 -455 -294 -88 0 -89 22 -5 81 81 57 411 221 447 224 4 0 10 -5 13
-11z"/>
<path d="M5770 2738 c-63 -24 -105 -51 -137 -88 -24 -26 -27 -44 -23 -117 2
-40 0 -43 -37 -60 -52 -25 -58 -65 -12 -88 36 -19 137 -22 584 -17 213 3 281
0 322 -11 42 -12 55 -13 69 -2 16 11 14 14 -17 27 -66 29 -144 41 -312 47
-145 5 -171 8 -181 23 -8 14 -5 23 16 45 85 91 72 186 -32 239 -60 31 -162 32
-240 2z m246 -72 c32 -36 29 -82 -6 -107 -35 -26 -115 -39 -234 -39 -135 1
-158 17 -116 85 18 29 60 53 150 89 8 3 53 4 98 3 78 -2 85 -4 108 -31z m-91
-196 c34 -13 28 -32 -16 -47 -39 -14 -277 -17 -298 -4 -53 34 237 80 314 51z"/>
<path d="M3047 2566 c-164 -85 -212 -120 -183 -132 14 -5 43 5 100 37 69 37
185 96 236 119 8 4 16 17 18 29 5 34 -21 26 -171 -53z"/>
<path d="M3330 2601 c-25 -10 -64 -27 -87 -39 -23 -12 -52 -22 -64 -22 -44 0
-207 -145 -196 -174 9 -23 20 -20 56 14 37 36 144 107 218 144 89 45 94 35 22
-44 -79 -85 -92 -110 -72 -132 18 -20 94 -25 135 -9 13 5 41 14 63 21 66 21
166 71 242 122 40 26 77 48 83 48 7 0 -3 -24 -20 -52 -51 -86 -73 -139 -62
-150 20 -20 47 11 95 105 58 118 59 127 8 127 -40 0 -72 -11 -176 -60 -115
-55 -286 -121 -295 -115 -19 12 -9 32 45 85 65 64 92 114 75 136 -15 17 -13
17 -70 -5z"/>
<path d="M5820 1928 c-88 -38 -120 -54 -160 -81 -25 -17 -47 -33 -50 -36 -3
-4 -29 -26 -57 -49 -102 -84 -209 -250 -234 -361 -13 -57 9 -121 41 -121 18 0
20 7 20 63 1 172 137 358 361 495 101 61 103 42 11 -79 -162 -214 -254 -388
-268 -509 -20 -176 120 -140 360 91 46 43 86 79 90 79 3 0 6 -27 6 -60 0 -139
99 -198 233 -141 83 36 187 156 187 216 0 28 35 81 62 96 54 29 138 28 138 -1
0 -5 -48 -80 -106 -166 -73 -107 -103 -159 -96 -166 6 -6 17 -8 25 -5 14 5
100 102 160 181 26 33 32 36 80 36 99 -1 428 -47 444 -63 38 -37 -54 -78 -188
-85 -122 -6 -166 7 -177 51 -10 40 -40 43 -61 5 -45 -79 85 -137 264 -117 128
14 251 87 243 143 -7 52 -169 95 -410 111 -71 5 -98 11 -102 21 -3 8 0 17 7
19 6 3 50 19 97 36 124 46 141 47 163 9 24 -40 41 -34 47 16 6 49 36 65 132
72 83 6 88 -6 18 -44 -32 -17 -50 -34 -50 -46 0 -24 12 -23 68 8 76 42 102 64
102 85 0 31 -44 42 -152 36 -106 -6 -112 -1 -53 44 56 43 145 127 145 138 0
17 -19 22 -41 11 -11 -6 -62 -50 -112 -97 -100 -92 -191 -152 -280 -183 -71
-25 -94 -25 -107 -1 -15 29 -61 34 -172 21 -100 -12 -100 -12 -131 18 -65 63
-187 82 -233 37 -46 -46 0 -85 140 -116 113 -25 118 -45 43 -153 -59 -83 -105
-118 -164 -123 -42 -4 -51 -2 -73 22 -33 35 -34 129 -2 190 17 34 19 42 7 54
-16 16 -85 -29 -234 -154 -207 -172 -252 -199 -266 -156 -18 57 111 315 254
506 78 104 122 181 115 199 -7 18 -46 20 -84 4z m445 -311 c31 -23 9 -39 -43
-31 -93 13 -113 44 -29 44 29 0 61 -6 72 -13z"/>
<path d="M9927 1872 c-31 -37 -152 -240 -185 -311 -79 -170 -69 -270 27 -287
54 -10 68 -20 81 -59 15 -45 12 -44 260 -47 196 -3 207 -4 243 -27 74 -46 262
-15 537 88 174 66 227 78 271 61 21 -8 107 -15 226 -18 174 -4 193 -3 199 12
13 35 -13 41 -199 47 -140 5 -189 10 -213 22 -40 22 -94 8 -455 -122 -124 -44
-294 -65 -340 -41 -31 17 -25 63 12 95 42 35 112 70 182 90 61 18 92 49 59 59
-50 16 -207 -50 -281 -119 -69 -63 -93 -72 -234 -84 -174 -15 -196 -14 -204 5
-8 21 8 30 132 75 167 61 235 95 235 118 0 11 -4 22 -9 26 -6 3 -90 -24 -188
-61 -201 -74 -259 -86 -299 -59 -49 32 -32 96 85 330 56 111 101 204 101 207
0 15 -30 15 -43 0z"/>
<path d="M646 1818 c-3 -13 -8 -50 -11 -83 -15 -141 -90 -537 -107 -565 -7
-10 -44 -37 -84 -60 -68 -39 -90 -60 -77 -74 23 -23 131 19 185 71 59 57 85
141 113 356 8 64 22 170 30 234 9 64 13 123 11 130 -9 23 -55 16 -60 -9z"/>
<path d="M1060 1789 c-124 -33 -185 -62 -243 -118 -52 -49 -70 -92 -70 -160 2
-155 146 -297 391 -385 102 -37 136 -43 147 -27 8 13 -20 31 -168 111 -222
120 -317 215 -317 318 0 85 126 184 256 201 68 10 99 35 70 57 -11 8 -22 14
-25 13 -3 0 -22 -5 -41 -10z"/>
<path d="M8045 1728 c-44 -16 -55 -27 -55 -59 0 -39 14 -44 65 -20 25 12 54
21 65 21 22 0 90 26 90 34 0 33 -99 47 -165 24z"/>
<path d="M7535 1681 c-119 -29 -341 -214 -321 -267 9 -23 19 -17 97 57 182
174 254 198 165 55 -60 -95 -82 -159 -68 -192 23 -50 82 -39 198 36 60 40 84
48 84 31 0 -5 16 -26 35 -46 34 -37 34 -37 105 -30 77 8 73 11 70 -58 -3 -76
70 -115 156 -82 62 24 58 50 -9 50 -31 0 -51 5 -58 15 -16 24 -4 100 25 159
44 92 26 126 -27 51 -37 -52 -92 -80 -156 -80 -84 0 -105 52 -55 131 26 42 26
69 0 69 -8 0 -56 -36 -107 -81 -127 -112 -166 -137 -184 -118 -17 17 -16 18
69 164 25 44 46 89 46 100 0 20 -18 46 -29 44 -4 -1 -19 -4 -36 -8z"/>
<path d="M9376 1639 c-133 -46 -213 -140 -177 -208 12 -22 60 -43 176 -76 168
-49 190 -57 217 -77 108 -76 -90 -241 -423 -352 -246 -82 -508 -103 -633 -51
-65 27 -71 -20 -9 -62 60 -41 212 -56 330 -34 26 5 77 15 113 21 76 14 90 18
235 66 202 67 357 153 434 241 110 125 35 222 -236 304 -144 43 -172 106 -69
157 41 20 69 25 160 30 135 6 173 25 103 50 -51 18 -154 14 -221 -9z"/>
<path d="M10670 1644 c-72 -19 -276 -120 -284 -140 -15 -40 11 -40 98 2 28 13
53 24 58 24 5 0 27 8 51 19 85 37 99 41 147 41 44 0 50 -3 56 -24 11 -46 -18
-99 -123 -227 -96 -117 -84 -149 19 -51 118 112 192 245 169 304 -22 58 -96
78 -191 52z"/>
<path d="M1440 1551 c-179 -21 -326 -116 -303 -196 18 -65 124 -134 253 -166
87 -22 389 -18 465 5 131 40 199 96 200 166 0 31 3 35 25 35 43 0 38 -38 -16
-118 -62 -94 -74 -182 -22 -162 8 3 28 33 43 65 49 102 157 190 233 190 37 0
65 21 61 46 -6 28 -59 29 -141 3 -64 -21 -71 -22 -96 -7 -15 8 -49 20 -76 27
-26 7 -78 27 -115 46 -113 56 -338 86 -511 66z m382 -75 c126 -32 198 -89 179
-139 -27 -70 -142 -102 -371 -102 -228 1 -360 31 -415 97 -32 38 -32 43 8 83
36 36 105 62 202 75 85 12 331 3 397 -14z"/>
<path d="M3591 1531 c-29 -27 -31 -33 -31 -102 0 -73 0 -73 -46 -120 -31 -31
-45 -53 -41 -63 11 -27 30 -18 90 45 58 62 58 62 95 45 20 -10 100 -42 177
-72 168 -66 252 -111 294 -159 62 -71 36 -165 -67 -240 -116 -85 -360 -147
-455 -116 -50 17 -52 35 -12 80 43 47 112 84 285 151 184 71 200 79 200 96 0
39 -82 23 -255 -51 -220 -93 -351 -198 -330 -265 3 -11 27 -32 52 -47 41 -24
54 -26 148 -25 228 1 446 108 519 254 32 63 32 85 5 143 -45 95 -172 175 -406
255 -141 49 -151 56 -129 99 47 91 -21 159 -93 92z"/>
<path d="M8309 1541 c-80 -25 -155 -69 -194 -113 -64 -70 -56 -119 25 -166 62
-37 218 -38 357 -3 97 24 124 24 183 -2 33 -14 40 -13 125 13 63 20 112 29
164 29 124 1 176 44 173 142 -1 40 3 61 13 69 45 38 -43 56 -125 26 -60 -22
-52 -41 33 -75 53 -21 30 -81 -40 -100 -47 -13 -73 0 -73 38 0 50 -26 59 -58
21 -71 -84 -99 -109 -135 -115 -84 -16 -89 20 -10 72 67 45 110 96 119 140 12
59 -18 52 -98 -22 -114 -104 -300 -182 -474 -200 -117 -11 -189 21 -148 66 23
25 65 36 164 43 147 9 246 61 225 118 -16 40 -129 50 -226 19z m166 -31 c10
-16 -37 -38 -129 -60 -85 -20 -123 -17 -94 7 17 14 167 62 195 63 12 0 24 -4
28 -10z"/>
<path d="M2630 1533 c-71 -47 -153 -149 -209 -259 -36 -72 -39 -94 -11 -94 15
0 29 19 56 73 40 78 120 197 134 197 14 0 17 -23 8 -65 -30 -129 30 -197 130
-146 76 38 143 42 337 16 48 -7 52 -5 122 44 112 79 135 65 84 -49 -17 -39
-31 -81 -31 -93 0 -36 40 -67 86 -67 79 0 244 65 244 95 0 27 -24 26 -113 -5
-161 -56 -183 -43 -128 74 38 79 38 75 -3 115 -21 20 -36 46 -39 68 -17 102
-117 73 -117 -33 0 -49 -18 -72 -75 -93 -42 -15 -65 -3 -65 35 0 31 -18 30
-60 -1 -37 -27 -81 -33 -99 -12 -7 10 -7 30 1 75 6 34 9 65 6 68 -14 13 -48
-9 -54 -34 -3 -15 -8 -35 -11 -45 -9 -34 -104 -117 -134 -117 -47 0 -49 47
-10 195 18 69 0 91 -49 58z"/>
<path d="M4637 1515 c-151 -30 -200 -117 -103 -180 33 -22 110 -17 114 7 2 12
-5 19 -25 23 -40 9 -58 20 -61 39 -7 34 137 66 299 66 148 0 214 21 160 50
-28 14 -302 11 -384 -5z"/>
</g>
</svg>
